<svg xmlns="http://www.w3.org/2000/svg" fill="none" viewBox="0 0 256 256"><g clip-path="url(#a)"><path fill="url(#b)" d="M84.93 0h86.14c29.53 0 40.24 3.07 51.04 8.85a60.2 60.2 0 0 1 25.04 25.04c5.78 10.8 8.85 21.5 8.85 51.04v86.14c0 29.53-3.07 40.24-8.85 51.04a60.2 60.2 0 0 1-25.04 25.04c-10.8 5.78-21.5 8.85-51.04 8.85H84.93c-29.53 0-40.24-3.07-51.04-8.85a60.2 60.2 0 0 1-25.04-25.04C3.07 211.3 0 200.6 0 171.07V84.93C0 55.4 3.07 44.69 8.85 33.89A60.2 60.2 0 0 1 33.89 8.85C44.7 3.07 55.4 0 84.93 0Z"/><path fill="#fff" d="M133.38 47.5a5.5 5.5 0 1 0-11.01 0v160.24a5.5 5.5 0 1 0 11.01 0V47.51Z"/><path fill="#fff" d="M213.5 127.88a5.5 5.5 0 0 1-5.5 5.5H48.25a5.5 5.5 0 1 1 0-11.01h159.73a5.5 5.5 0 0 1 5.51 5.5Z"/><path fill="#fff" d="M52.45 52.07c2.1-2.1 5.5-2.1 7.6 0l143.32 143.74a5.4 5.4 0 0 1 0 7.63 5.37 5.37 0 0 1-7.59.01l-.01-.01L52.45 59.7a5.4 5.4 0 0 1 0-7.63Z"/><path fill="#fff" d="M203.38 52.07a5.4 5.4 0 0 1 0 7.63L60.06 203.44a5.37 5.37 0 0 1-7.6 0 5.4 5.4 0 0 1 0-7.63L195.76 52.07c2.1-2.1 5.5-2.1 7.6 0Z"/></g><defs><linearGradient id="b" x1="128" x2="128" y1="41.25" y2="256" gradientUnits="userSpaceOnUse"><stop stop-color="#152671"/><stop offset="1" stop-color="#5669BD"/></linearGradient><clipPath id="a"><path fill="#fff" d="M0 0h256v256H0z"/></clipPath></defs></svg>
